<svg width="128" height="128" viewBox="0 0 128 128" fill="none" xmlns="http://www.w3.org/2000/svg">
<rect width="128" height="128" rx="8" fill="white"/>
<rect width="128" height="128" fill="#3C25E5"/>
<path d="M19.3018 98.976H21.4578L25.2238 109H23.1378L22.3118 106.606H18.4478L17.6218 109H15.5358L19.3018 98.976ZM21.6958 104.87L20.7998 102.364L20.4358 101.146H20.3238L19.9598 102.364L19.0638 104.87H21.6958ZM27.5173 109V98.976H31.0453C31.5213 98.976 31.9646 99.0553 32.3753 99.214C32.7953 99.3633 33.1593 99.578 33.4673 99.858C33.7753 100.138 34.0179 100.474 34.1953 100.866C34.3726 101.249 34.4613 101.673 34.4613 102.14C34.4613 102.616 34.3726 103.05 34.1953 103.442C34.0179 103.825 33.7753 104.156 33.4673 104.436C33.1593 104.716 32.7953 104.935 32.3753 105.094C31.9646 105.243 31.5213 105.318 31.0453 105.318H29.4073V109H27.5173ZM31.0733 103.526C31.5679 103.526 31.9413 103.386 32.1933 103.106C32.4453 102.826 32.5713 102.504 32.5713 102.14C32.5713 101.963 32.5386 101.79 32.4733 101.622C32.4173 101.454 32.3239 101.309 32.1933 101.188C32.0719 101.057 31.9179 100.955 31.7313 100.88C31.5446 100.805 31.3253 100.768 31.0733 100.768H29.4073V103.526H31.0733ZM36.9224 109V98.976H40.4504C40.9264 98.976 41.3697 99.0553 41.7804 99.214C42.2004 99.3633 42.5644 99.578 42.8724 99.858C43.1804 100.138 43.4231 100.474 43.6004 100.866C43.7777 101.249 43.8664 101.673 43.8664 102.14C43.8664 102.616 43.7777 103.05 43.6004 103.442C43.4231 103.825 43.1804 104.156 42.8724 104.436C42.5644 104.716 42.2004 104.935 41.7804 105.094C41.3697 105.243 40.9264 105.318 40.4504 105.318H38.8124V109H36.9224ZM40.4784 103.526C40.9731 103.526 41.3464 103.386 41.5984 103.106C41.8504 102.826 41.9764 102.504 41.9764 102.14C41.9764 101.963 41.9437 101.79 41.8784 101.622C41.8224 101.454 41.7291 101.309 41.5984 101.188C41.4771 101.057 41.3231 100.955 41.1364 100.88C40.9497 100.805 40.7304 100.768 40.4784 100.768H38.8124V103.526H40.4784ZM50.5237 98.976H54.4437C54.8731 98.976 55.2744 99.046 55.6477 99.186C56.0211 99.3167 56.3431 99.5033 56.6137 99.746C56.8937 99.9793 57.1131 100.255 57.2717 100.572C57.4304 100.889 57.5097 101.23 57.5097 101.594C57.5097 102.126 57.3791 102.574 57.1177 102.938C56.8657 103.293 56.5484 103.563 56.1657 103.75V103.862C56.6791 104.049 57.0897 104.343 57.3977 104.744C57.7151 105.136 57.8737 105.626 57.8737 106.214C57.8737 106.643 57.7851 107.031 57.6077 107.376C57.4397 107.712 57.2064 108.001 56.9077 108.244C56.6091 108.487 56.2591 108.673 55.8577 108.804C55.4657 108.935 55.0411 109 54.5837 109H50.5237V98.976ZM54.3037 103.064C54.7424 103.064 55.0784 102.947 55.3117 102.714C55.5544 102.471 55.6757 102.187 55.6757 101.86C55.6757 101.533 55.5591 101.253 55.3257 101.02C55.0924 100.787 54.7704 100.67 54.3597 100.67H52.4137V103.064H54.3037ZM54.5137 107.264C54.9897 107.264 55.3537 107.147 55.6057 106.914C55.8577 106.671 55.9837 106.363 55.9837 105.99C55.9837 105.617 55.8531 105.309 55.5917 105.066C55.3397 104.814 54.9617 104.688 54.4577 104.688H52.4137V107.264H54.5137ZM64.1164 109.224C63.5284 109.224 62.9918 109.131 62.5064 108.944C62.0304 108.748 61.6244 108.468 61.2884 108.104C60.9524 107.74 60.6911 107.301 60.5044 106.788C60.3178 106.265 60.2244 105.673 60.2244 105.01V98.976H62.1144V105.122C62.1144 105.458 62.1564 105.766 62.2404 106.046C62.3244 106.326 62.4504 106.569 62.6184 106.774C62.7864 106.979 62.9964 107.143 63.2484 107.264C63.5004 107.376 63.7898 107.432 64.1164 107.432C64.4524 107.432 64.7464 107.376 64.9984 107.264C65.2504 107.143 65.4604 106.979 65.6284 106.774C65.7964 106.569 65.9224 106.326 66.0064 106.046C66.0904 105.766 66.1324 105.458 66.1324 105.122V98.976H68.0224V105.01C68.0224 105.635 67.9291 106.209 67.7424 106.732C67.5651 107.245 67.3038 107.689 66.9584 108.062C66.6224 108.426 66.2118 108.711 65.7264 108.916C65.2504 109.121 64.7138 109.224 64.1164 109.224ZM70.9337 98.976H72.8237V109H70.9337V98.976ZM75.9638 98.976H77.8538V107.208H82.0958V109H75.9638V98.976ZM84.5623 98.976H87.9503C88.7437 98.976 89.4577 99.0973 90.0923 99.34C90.727 99.5827 91.2683 99.928 91.7163 100.376C92.1643 100.815 92.505 101.342 92.7383 101.958C92.981 102.574 93.1023 103.251 93.1023 103.988C93.1023 104.735 92.981 105.416 92.7383 106.032C92.505 106.648 92.1643 107.175 91.7163 107.614C91.2683 108.053 90.727 108.393 90.0923 108.636C89.4577 108.879 88.7437 109 87.9503 109H84.5623V98.976ZM87.8663 107.208C88.417 107.208 88.9023 107.133 89.3223 106.984C89.7423 106.825 90.0923 106.606 90.3723 106.326C90.6523 106.046 90.8623 105.71 91.0023 105.318C91.1423 104.917 91.2123 104.473 91.2123 103.988C91.2123 103.503 91.1423 103.064 91.0023 102.672C90.8623 102.271 90.6523 101.93 90.3723 101.65C90.0923 101.37 89.7423 101.155 89.3223 101.006C88.9023 100.847 88.417 100.768 87.8663 100.768H86.4523V107.208H87.8663ZM97.6348 100.768V103.092H101.653V104.884H97.6348V107.208H102.101V109H95.7448V98.976H102.101V100.768H97.6348ZM104.959 98.976H108.613C109.117 98.976 109.574 99.0553 109.985 99.214C110.395 99.3727 110.745 99.592 111.035 99.872C111.333 100.152 111.562 100.488 111.721 100.88C111.879 101.263 111.959 101.683 111.959 102.14C111.959 102.476 111.903 102.793 111.791 103.092C111.679 103.381 111.525 103.647 111.329 103.89C111.133 104.123 110.904 104.333 110.643 104.52C110.381 104.697 110.106 104.837 109.817 104.94L109.803 105.038L112.491 108.888V109H110.321L107.731 105.234H106.849V109H104.959V98.976ZM108.599 103.498C109.028 103.498 109.378 103.367 109.649 103.106C109.929 102.845 110.069 102.513 110.069 102.112C110.069 101.935 110.036 101.762 109.971 101.594C109.915 101.426 109.826 101.277 109.705 101.146C109.583 101.015 109.429 100.913 109.243 100.838C109.065 100.754 108.86 100.712 108.627 100.712H106.849V103.498H108.599Z" fill="white"/>
<path d="M91.75 36.9286L63.875 21L36 36.9286V68.7857L63.875 84.7143L91.75 68.7857V36.9286Z" stroke="white" stroke-width="3"/>
<path d="M63.875 21V84.7143" stroke="white" stroke-width="3"/>
<path d="M36 36.9287L91.75 68.7858" stroke="white" stroke-width="3"/>
<path d="M36 68.7858L91.75 36.9287" stroke="white" stroke-width="3"/>
</svg>
